<svg width="40" height="52" viewBox="0 0 40 52" fill="none" xmlns="http://www.w3.org/2000/svg">
<path d="M26.0167 20C26.0167 23.3167 23.3167 26.0167 20 26.0167C16.6833 26.0167 13.9833 23.3167 13.9833 20C13.9833 16.6833 16.6833 13.9833 20 13.9833C23.3167 13.9833 26.0167 16.6833 26.0167 20ZM20 0C8.97167 0 0 8.97167 0 20C0 31.0283 8.97167 40 20 40C24.04 40 27.935 38.7967 31.2667 36.5217L31.3233 36.4817L28.6283 33.35L28.5833 33.3783C26.0243 35.027 23.0441 35.9026 20 35.9C11.2333 35.9 4.1 28.7667 4.1 20C4.1 11.2333 11.2333 4.1 20 4.1C28.7667 4.1 35.9 11.2333 35.9 20C35.8977 21.149 35.7719 22.2945 35.525 23.4167C35.0233 25.4817 33.5767 26.1133 32.4917 26.03C31.4017 25.9417 30.125 25.1633 30.115 23.2617V20C30.1124 17.318 29.0459 14.7466 27.1496 12.8499C25.2533 10.9533 22.682 9.88642 20 9.88333C17.3177 9.88598 14.746 10.9527 12.8494 12.8494C10.9527 14.746 9.88598 17.3177 9.88333 20C9.88598 22.6823 10.9527 25.254 12.8494 27.1506C14.746 29.0473 17.3177 30.114 20 30.1167C21.3331 30.1199 22.6534 29.8575 23.8839 29.3446C25.1144 28.8318 26.2304 28.079 27.1667 27.13C27.7584 28.0593 28.5767 28.8229 29.5446 29.3491C30.5125 29.8753 31.5983 30.1469 32.7 30.1383C34.1567 30.1383 35.6 29.6517 36.7617 28.77C37.96 27.8583 38.855 26.5433 39.35 24.9617C39.4283 24.705 39.575 24.1217 39.575 24.1167L39.5783 24.095C39.87 22.8283 40 21.5617 40 20C40 8.97167 31.0283 0 20 0" fill="#FFD700"/>
<path d="M12.3418 48.2334V49H8.57715V48.2334H12.3418ZM8.76758 41.8906V49H7.8252V41.8906H8.76758ZM11.8438 44.9473V45.7139H8.57715V44.9473H11.8438ZM12.293 41.8906V42.6621H8.57715V41.8906H12.293ZM14.2705 44.7666V49H13.3623V43.7168H14.2217L14.2705 44.7666ZM14.085 46.1582L13.665 46.1436C13.6683 45.7822 13.7155 45.4486 13.8066 45.1426C13.8978 44.8333 14.0329 44.5648 14.2119 44.3369C14.391 44.109 14.6139 43.9333 14.8809 43.8096C15.1478 43.6826 15.457 43.6191 15.8086 43.6191C16.056 43.6191 16.2839 43.6549 16.4922 43.7266C16.7005 43.7949 16.8812 43.904 17.0342 44.0537C17.1872 44.2035 17.306 44.3955 17.3906 44.6299C17.4753 44.8643 17.5176 45.1475 17.5176 45.4795V49H16.6143V45.5234C16.6143 45.2467 16.5671 45.0254 16.4727 44.8594C16.3815 44.6934 16.2513 44.5729 16.082 44.498C15.9128 44.4199 15.7142 44.3809 15.4863 44.3809C15.2194 44.3809 14.9964 44.4281 14.8174 44.5225C14.6383 44.6169 14.4951 44.7471 14.3877 44.9131C14.2803 45.0791 14.2021 45.2695 14.1533 45.4844C14.1077 45.696 14.085 45.9206 14.085 46.1582ZM17.5078 45.6602L16.9023 45.8457C16.9056 45.556 16.9528 45.2777 17.0439 45.0107C17.1383 44.7438 17.2734 44.5062 17.4492 44.2979C17.6283 44.0895 17.848 43.9251 18.1084 43.8047C18.3688 43.681 18.6667 43.6191 19.002 43.6191C19.2852 43.6191 19.5358 43.6566 19.7539 43.7314C19.9753 43.8063 20.1608 43.9219 20.3105 44.0781C20.4635 44.2311 20.5791 44.4281 20.6572 44.6689C20.7354 44.9098 20.7744 45.1963 20.7744 45.5283V49H19.8662V45.5186C19.8662 45.2223 19.819 44.9928 19.7246 44.8301C19.6335 44.6641 19.5033 44.5485 19.334 44.4834C19.168 44.415 18.9694 44.3809 18.7383 44.3809C18.5397 44.3809 18.3639 44.415 18.2109 44.4834C18.0579 44.5518 17.9294 44.6462 17.8252 44.7666C17.721 44.8838 17.6413 45.0189 17.5859 45.1719C17.5339 45.3249 17.5078 45.4876 17.5078 45.6602ZM25.2568 48.0967V45.377C25.2568 45.1686 25.2145 44.988 25.1299 44.835C25.0485 44.6787 24.9248 44.5583 24.7588 44.4736C24.5928 44.389 24.3877 44.3467 24.1436 44.3467C23.9157 44.3467 23.7155 44.3857 23.543 44.4639C23.3737 44.542 23.2402 44.6445 23.1426 44.7715C23.0482 44.8984 23.001 45.0352 23.001 45.1816H22.0977C22.0977 44.9928 22.1465 44.8057 22.2441 44.6201C22.3418 44.4346 22.4818 44.2669 22.6641 44.1172C22.8496 43.9642 23.071 43.8438 23.3281 43.7559C23.5885 43.6647 23.8783 43.6191 24.1973 43.6191C24.5814 43.6191 24.9199 43.6842 25.2129 43.8145C25.5091 43.9447 25.7402 44.1416 25.9062 44.4053C26.0755 44.6657 26.1602 44.9928 26.1602 45.3867V47.8477C26.1602 48.0234 26.1748 48.2106 26.2041 48.4092C26.2367 48.6077 26.2839 48.7786 26.3457 48.9219V49H25.4033C25.3577 48.8958 25.3219 48.7575 25.2959 48.585C25.2699 48.4092 25.2568 48.2464 25.2568 48.0967ZM25.4131 45.7969L25.4229 46.4316H24.5098C24.2526 46.4316 24.0231 46.4528 23.8213 46.4951C23.6195 46.5342 23.4502 46.5944 23.3135 46.6758C23.1768 46.7572 23.0726 46.8597 23.001 46.9834C22.9294 47.1038 22.8936 47.2454 22.8936 47.4082C22.8936 47.5742 22.931 47.7256 23.0059 47.8623C23.0807 47.999 23.193 48.1081 23.3428 48.1895C23.4958 48.2676 23.6829 48.3066 23.9043 48.3066C24.181 48.3066 24.4251 48.248 24.6367 48.1309C24.8483 48.0137 25.016 47.8704 25.1396 47.7012C25.2666 47.5319 25.335 47.3675 25.3447 47.208L25.7305 47.6426C25.7077 47.7793 25.6458 47.9307 25.5449 48.0967C25.444 48.2627 25.3089 48.4222 25.1396 48.5752C24.9736 48.7249 24.7751 48.8503 24.5439 48.9512C24.3161 49.0488 24.0589 49.0977 23.7725 49.0977C23.4144 49.0977 23.1003 49.0277 22.8301 48.8877C22.5632 48.7477 22.3548 48.5605 22.2051 48.3262C22.0586 48.0885 21.9854 47.8232 21.9854 47.5303C21.9854 47.2471 22.0407 46.998 22.1514 46.7832C22.262 46.5651 22.4215 46.3844 22.6299 46.2412C22.8382 46.0947 23.0889 45.984 23.3818 45.9092C23.6748 45.8343 24.002 45.7969 24.3633 45.7969H25.4131ZM28.5625 43.7168V49H27.6543V43.7168H28.5625ZM27.5859 42.3154C27.5859 42.1689 27.6299 42.0452 27.7178 41.9443C27.8089 41.8434 27.9424 41.793 28.1182 41.793C28.2907 41.793 28.4225 41.8434 28.5137 41.9443C28.6081 42.0452 28.6553 42.1689 28.6553 42.3154C28.6553 42.4554 28.6081 42.5758 28.5137 42.6768C28.4225 42.7744 28.2907 42.8232 28.1182 42.8232C27.9424 42.8232 27.8089 42.7744 27.7178 42.6768C27.6299 42.5758 27.5859 42.4554 27.5859 42.3154ZM30.9941 41.5V49H30.0859V41.5H30.9941Z" fill="#FFD700"/>
</svg>
