<svg width="40" height="52" viewBox="0 0 40 52" fill="none" xmlns="http://www.w3.org/2000/svg">
<path d="M20 0.833336C8.95 0.833336 0 9.78834 0 20.8333C0 29.6717 5.73 37.1667 13.675 39.8083C14.675 39.9967 15.0417 39.3783 15.0417 38.8467C15.0417 38.3717 15.025 37.1133 15.0167 35.4467C9.45333 36.6533 8.28 32.7633 8.28 32.7633C7.37 30.455 6.055 29.8383 6.055 29.8383C4.24333 28.5983 6.195 28.6233 6.195 28.6233C8.20333 28.7633 9.25833 30.6833 9.25833 30.6833C11.0417 33.7417 13.94 32.8583 15.0833 32.3467C15.2633 31.0533 15.7783 30.1717 16.35 29.6717C11.9083 29.1717 7.24 27.4517 7.24 19.7883C7.24 17.605 8.015 15.8217 9.29833 14.4217C9.07333 13.9167 8.39833 11.8833 9.47333 9.12834C9.47333 9.12834 11.1483 8.59167 14.9733 11.1783C16.5733 10.7333 18.2733 10.5133 19.9733 10.5033C21.6733 10.5133 23.3733 10.7333 24.9733 11.1783C28.7733 8.59167 30.4483 9.12834 30.4483 9.12834C31.5233 11.8833 30.8483 13.9167 30.6483 14.4217C31.9233 15.8217 32.6983 17.605 32.6983 19.7883C32.6983 27.4717 28.0233 29.1633 23.5733 29.655C24.2733 30.255 24.9233 31.4817 24.9233 33.355C24.9233 36.0317 24.8983 38.1817 24.8983 38.8317C24.8983 39.3567 25.2483 39.9817 26.2733 39.7817C34.275 37.1583 40 29.6583 40 20.8333C40 9.78834 31.045 0.833336 20 0.833336Z" fill="#FFD700"/>
<path d="M11.0791 45.46V48.0625C10.9912 48.1927 10.8512 48.3392 10.6592 48.502C10.4671 48.6615 10.2018 48.8014 9.86328 48.9219C9.52799 49.0391 9.09505 49.0977 8.56445 49.0977C8.13151 49.0977 7.73275 49.0228 7.36816 48.873C7.00684 48.7201 6.69271 48.4987 6.42578 48.209C6.16211 47.916 5.95703 47.5612 5.81055 47.1445C5.66732 46.7246 5.5957 46.2493 5.5957 45.7188V45.167C5.5957 44.6364 5.65755 44.1628 5.78125 43.7461C5.9082 43.3294 6.09375 42.9762 6.33789 42.6865C6.58203 42.3936 6.88151 42.1722 7.23633 42.0225C7.59115 41.8695 7.99805 41.793 8.45703 41.793C9.00065 41.793 9.45475 41.8874 9.81934 42.0762C10.1872 42.2617 10.4736 42.5189 10.6787 42.8477C10.887 43.1764 11.0205 43.5508 11.0791 43.9707H10.1367C10.0944 43.7135 10.0098 43.4792 9.88281 43.2676C9.75911 43.056 9.58171 42.8867 9.35059 42.7598C9.11947 42.6296 8.82161 42.5645 8.45703 42.5645C8.12826 42.5645 7.84342 42.6247 7.60254 42.7451C7.36165 42.8656 7.16309 43.0381 7.00684 43.2627C6.85059 43.4873 6.7334 43.7591 6.65527 44.0781C6.5804 44.3971 6.54297 44.7568 6.54297 45.1572V45.7188C6.54297 46.1289 6.59017 46.4951 6.68457 46.8174C6.78223 47.1396 6.92057 47.4147 7.09961 47.6426C7.27865 47.8672 7.49186 48.0381 7.73926 48.1553C7.98991 48.2725 8.2666 48.3311 8.56934 48.3311C8.90462 48.3311 9.17643 48.3034 9.38477 48.248C9.5931 48.1895 9.75586 48.1211 9.87305 48.043C9.99023 47.9616 10.0798 47.8851 10.1416 47.8135V46.2217H8.49609V45.46H11.0791ZM13.4863 43.7168V49H12.5781V43.7168H13.4863ZM12.5098 42.3154C12.5098 42.1689 12.5537 42.0452 12.6416 41.9443C12.7327 41.8434 12.8662 41.793 13.042 41.793C13.2145 41.793 13.3464 41.8434 13.4375 41.9443C13.5319 42.0452 13.5791 42.1689 13.5791 42.3154C13.5791 42.4554 13.5319 42.5758 13.4375 42.6768C13.3464 42.7744 13.2145 42.8232 13.042 42.8232C12.8662 42.8232 12.7327 42.7744 12.6416 42.6768C12.5537 42.5758 12.5098 42.4554 12.5098 42.3154ZM17.1484 43.7168V44.4102H14.292V43.7168H17.1484ZM15.2588 42.4326H16.1621V47.6914C16.1621 47.8704 16.1898 48.0055 16.2451 48.0967C16.3005 48.1878 16.3721 48.248 16.46 48.2773C16.5479 48.3066 16.6423 48.3213 16.7432 48.3213C16.818 48.3213 16.8962 48.3148 16.9775 48.3018C17.0622 48.2855 17.1257 48.2725 17.168 48.2627L17.1729 49C17.1012 49.0228 17.0068 49.0439 16.8896 49.0635C16.7757 49.0863 16.6374 49.0977 16.4746 49.0977C16.2533 49.0977 16.0498 49.0537 15.8643 48.9658C15.6787 48.8779 15.5306 48.7314 15.4199 48.5264C15.3125 48.318 15.2588 48.0381 15.2588 47.6865V42.4326ZM19.1113 41.5V49H18.208V41.5H19.1113ZM18.8965 46.1582L18.5205 46.1436C18.5238 45.7822 18.5775 45.4486 18.6816 45.1426C18.7858 44.8333 18.9323 44.5648 19.1211 44.3369C19.3099 44.109 19.5345 43.9333 19.7949 43.8096C20.0586 43.6826 20.3499 43.6191 20.6689 43.6191C20.9294 43.6191 21.1637 43.6549 21.3721 43.7266C21.5804 43.7949 21.7578 43.9056 21.9043 44.0586C22.054 44.2116 22.168 44.4102 22.2461 44.6543C22.3242 44.8952 22.3633 45.1898 22.3633 45.5381V49H21.4551V45.5283C21.4551 45.2516 21.4144 45.0303 21.333 44.8643C21.2516 44.695 21.1328 44.5729 20.9766 44.498C20.8203 44.4199 20.6283 44.3809 20.4004 44.3809C20.1758 44.3809 19.9707 44.4281 19.7852 44.5225C19.6029 44.6169 19.445 44.7471 19.3115 44.9131C19.1813 45.0791 19.0788 45.2695 19.0039 45.4844C18.9323 45.696 18.8965 45.9206 18.8965 46.1582ZM26.9482 47.7793V43.7168H27.8564V49H26.9922L26.9482 47.7793ZM27.1191 46.666L27.4951 46.6562C27.4951 47.0078 27.4577 47.3333 27.3828 47.6328C27.3112 47.929 27.194 48.1862 27.0312 48.4043C26.8685 48.6224 26.6553 48.7933 26.3916 48.917C26.1279 49.0374 25.8073 49.0977 25.4297 49.0977C25.1725 49.0977 24.9365 49.0602 24.7217 48.9854C24.5101 48.9105 24.3278 48.7949 24.1748 48.6387C24.0218 48.4824 23.903 48.279 23.8184 48.0283C23.737 47.7777 23.6963 47.4766 23.6963 47.125V43.7168H24.5996V47.1348C24.5996 47.3724 24.6257 47.5693 24.6777 47.7256C24.7331 47.8786 24.8063 48.0007 24.8975 48.0918C24.9919 48.1797 25.096 48.2415 25.21 48.2773C25.3271 48.3132 25.4476 48.3311 25.5713 48.3311C25.9554 48.3311 26.2598 48.2578 26.4844 48.1113C26.709 47.9616 26.8701 47.7614 26.9678 47.5107C27.0687 47.2568 27.1191 46.9753 27.1191 46.666ZM29.2285 41.5H30.1367V47.9746L30.0586 49H29.2285V41.5ZM33.7061 46.3145V46.417C33.7061 46.8011 33.6605 47.1576 33.5693 47.4863C33.4782 47.8118 33.3447 48.0951 33.1689 48.3359C32.9932 48.5768 32.7783 48.764 32.5244 48.8975C32.2705 49.0309 31.9792 49.0977 31.6504 49.0977C31.3151 49.0977 31.0205 49.0407 30.7666 48.9268C30.516 48.8096 30.3044 48.6419 30.1318 48.4238C29.9593 48.2057 29.821 47.9421 29.7168 47.6328C29.6159 47.3236 29.5459 46.9753 29.5068 46.5879V46.1387C29.5459 45.748 29.6159 45.3981 29.7168 45.0889C29.821 44.7796 29.9593 44.516 30.1318 44.2979C30.3044 44.0765 30.516 43.9089 30.7666 43.7949C31.0173 43.6777 31.3086 43.6191 31.6406 43.6191C31.9727 43.6191 32.2673 43.6842 32.5244 43.8145C32.7816 43.9414 32.9964 44.1237 33.1689 44.3613C33.3447 44.599 33.4782 44.8838 33.5693 45.2158C33.6605 45.5446 33.7061 45.9108 33.7061 46.3145ZM32.7979 46.417V46.3145C32.7979 46.0508 32.7734 45.8034 32.7246 45.5723C32.6758 45.3379 32.5977 45.1328 32.4902 44.957C32.3828 44.778 32.2412 44.638 32.0654 44.5371C31.8896 44.4329 31.6732 44.3809 31.416 44.3809C31.1882 44.3809 30.9896 44.4199 30.8203 44.498C30.6543 44.5762 30.5127 44.682 30.3955 44.8154C30.2783 44.9456 30.1823 45.0954 30.1074 45.2646C30.0358 45.4307 29.9821 45.6032 29.9463 45.7822V46.959C29.9984 47.1868 30.083 47.4066 30.2002 47.6182C30.3206 47.8265 30.4801 47.9974 30.6787 48.1309C30.8805 48.2643 31.1296 48.3311 31.4258 48.3311C31.6699 48.3311 31.8783 48.2822 32.0508 48.1846C32.2266 48.0837 32.3682 47.9453 32.4756 47.7695C32.5863 47.5938 32.6676 47.3903 32.7197 47.1592C32.7718 46.9281 32.7979 46.6807 32.7979 46.417Z" fill="#FFD700"/>
</svg>
