<svg width="40" height="52" viewBox="0 0 40 52" fill="none" xmlns="http://www.w3.org/2000/svg">
<path d="M5.21667 1.88839C3.46667 2.92506 0.0333333 6.87172 0 7.90839V9.62506C0 11.7967 2.03333 13.7084 3.875 13.7084C6.09167 13.7084 7.935 11.8717 7.935 9.69172C7.935 11.8717 9.71833 13.7084 11.935 13.7084C14.1483 13.7084 15.8717 11.8717 15.8717 9.69172C15.8717 11.8717 17.7667 13.7084 19.9817 13.7084H20.0217C22.2383 13.7084 24.1317 11.8717 24.1317 9.69172C24.1317 11.8717 25.855 13.7084 28.07 13.7084C30.2867 13.7084 32.07 11.8717 32.07 9.69172C32.07 11.8717 33.9133 13.7084 36.1283 13.7084C37.9667 13.7084 40 11.7951 40 9.62506V7.90839C39.9667 6.87505 36.53 2.92506 34.7833 1.88839C29.3617 1.69839 25.6033 1.66506 20 1.66672C14.3967 1.66672 6.75833 1.75506 5.21667 1.88839ZM15.8433 12.6834C15.6314 13.0526 15.3688 13.3903 15.0633 13.6867C14.23 14.5034 13.08 15.0117 11.8183 15.0117C10.6034 15.0123 9.4366 14.5366 8.56833 13.6867C8.265 13.3901 8.035 13.0701 7.825 12.7034C7.61333 13.0734 7.32 13.3901 7.015 13.6867C6.14654 14.5363 4.97989 15.0119 3.765 15.0117C3.61167 15.0117 3.45333 14.9701 3.325 14.9251C3.14667 16.7801 3.07167 18.5517 3.045 19.8417V19.8501L3.035 21.7951C3.06833 25.6851 2.65167 34.4017 4.75167 36.5451C8.005 37.3017 13.9933 37.6484 20.0017 37.6501C26.01 37.6501 31.9983 37.3001 35.2517 36.5434C37.3517 34.4034 36.935 25.6867 36.9683 21.7967L36.9583 19.8517V19.8451C36.9317 18.5534 36.8583 16.7817 36.6783 14.9284C36.55 14.9717 36.3917 15.0151 36.24 15.0151C35.0251 15.0152 33.8585 14.5396 32.99 13.6901C32.6833 13.3934 32.39 13.0767 32.18 12.7067C31.9683 13.0734 31.7383 13.3934 31.435 13.6901C30.5665 14.5393 29.3997 15.0144 28.185 15.0134C26.9183 15.0134 25.775 14.5084 24.9383 13.6917C24.6328 13.3953 24.3703 13.0576 24.1583 12.6884C23.949 13.0571 23.6892 13.3947 23.3867 13.6917C22.518 14.5408 21.3514 15.0159 20.1367 15.0151H19.87C18.6555 15.0163 17.4889 14.5419 16.62 13.6934C16.3168 13.3965 16.0565 13.0588 15.8467 12.6901L15.8433 12.6834ZM12.5033 17.0001V17.0034C13.8283 17.0067 15.0033 17.0034 16.4583 18.5917C17.6033 18.4717 18.8017 18.4117 20 18.4134C21.2 18.4134 22.3967 18.4717 23.5417 18.5917C24.9967 17.0034 26.1717 17.0084 27.495 17.0034C28.1217 17.0034 30.6217 17.0034 32.3617 21.8934L34.2333 28.6067C35.62 33.5984 33.79 33.7201 31.5067 33.7234C28.1233 33.5984 26.2467 31.1401 26.2467 28.6817C24.3733 28.9884 22.1867 29.1417 20 29.1434C17.8133 29.1434 15.6267 28.9884 13.7533 28.6817C13.7533 31.1401 11.8783 33.5984 8.49333 33.7251C6.21 33.7184 4.38 33.5967 5.76667 28.6051L7.63667 21.8934C9.37833 17.0034 11.8783 17.0034 12.5033 17.0034V17.0001ZM20 20.8484C19.9967 20.8517 16.4333 24.1217 15.795 25.2851L18.1283 25.1917V27.2251C18.1283 27.3184 19.0617 27.2801 20 27.2367C20.9367 27.2801 21.8733 27.3201 21.8733 27.2234V25.1901L24.2067 25.2817C23.5633 24.1201 20 20.8467 20 20.8467V20.8484Z" fill="#FFD700"/>
<path d="M7.83594 41.8906V49H6.89355V41.8906H7.83594ZM11.625 43.7168V44.4102H8.76855V43.7168H11.625ZM9.73535 42.4326H10.6387V47.6914C10.6387 47.8704 10.6663 48.0055 10.7217 48.0967C10.777 48.1878 10.8486 48.248 10.9365 48.2773C11.0244 48.3066 11.1188 48.3213 11.2197 48.3213C11.2946 48.3213 11.3727 48.3148 11.4541 48.3018C11.5387 48.2855 11.6022 48.2725 11.6445 48.2627L11.6494 49C11.5778 49.0228 11.4834 49.0439 11.3662 49.0635C11.2523 49.0863 11.1139 49.0977 10.9512 49.0977C10.7298 49.0977 10.5264 49.0537 10.3408 48.9658C10.1553 48.8779 10.0072 48.7314 9.89648 48.5264C9.78906 48.318 9.73535 48.0381 9.73535 47.6865V42.4326ZM14.7988 48.3555C15.0137 48.3555 15.2122 48.3115 15.3945 48.2236C15.5768 48.1357 15.7266 48.0153 15.8438 47.8623C15.9609 47.7061 16.0277 47.5286 16.0439 47.3301H16.9033C16.887 47.6426 16.7812 47.9339 16.5859 48.2041C16.3939 48.471 16.1416 48.6875 15.8291 48.8535C15.5166 49.0163 15.1732 49.0977 14.7988 49.0977C14.4017 49.0977 14.055 49.0277 13.7588 48.8877C13.4658 48.7477 13.2217 48.5557 13.0264 48.3115C12.8343 48.0674 12.6895 47.7874 12.5918 47.4717C12.4974 47.1527 12.4502 46.8158 12.4502 46.4609V46.2559C12.4502 45.901 12.4974 45.5658 12.5918 45.25C12.6895 44.931 12.8343 44.6494 13.0264 44.4053C13.2217 44.1611 13.4658 43.9691 13.7588 43.8291C14.055 43.6891 14.4017 43.6191 14.7988 43.6191C15.2122 43.6191 15.5736 43.7038 15.8828 43.873C16.1921 44.0391 16.4346 44.2669 16.6104 44.5566C16.7894 44.8431 16.887 45.1686 16.9033 45.5332H16.0439C16.0277 45.3151 15.9658 45.1182 15.8584 44.9424C15.7542 44.7666 15.611 44.6266 15.4287 44.5225C15.2497 44.415 15.0397 44.3613 14.7988 44.3613C14.5221 44.3613 14.2894 44.4167 14.1006 44.5273C13.915 44.6348 13.7669 44.7812 13.6562 44.9668C13.5488 45.1491 13.4707 45.3525 13.4219 45.5771C13.3763 45.7985 13.3535 46.0247 13.3535 46.2559V46.4609C13.3535 46.6921 13.3763 46.9199 13.4219 47.1445C13.4674 47.3691 13.5439 47.5726 13.6514 47.7549C13.762 47.9372 13.9102 48.0837 14.0957 48.1943C14.2845 48.3018 14.5189 48.3555 14.7988 48.3555ZM18.8223 41.5V49H17.9189V41.5H18.8223ZM18.6074 46.1582L18.2314 46.1436C18.2347 45.7822 18.2884 45.4486 18.3926 45.1426C18.4967 44.8333 18.6432 44.5648 18.832 44.3369C19.0208 44.109 19.2454 43.9333 19.5059 43.8096C19.7695 43.6826 20.0609 43.6191 20.3799 43.6191C20.6403 43.6191 20.8747 43.6549 21.083 43.7266C21.2913 43.7949 21.4688 43.9056 21.6152 44.0586C21.765 44.2116 21.8789 44.4102 21.957 44.6543C22.0352 44.8952 22.0742 45.1898 22.0742 45.5381V49H21.166V45.5283C21.166 45.2516 21.1253 45.0303 21.0439 44.8643C20.9626 44.695 20.8438 44.5729 20.6875 44.498C20.5312 44.4199 20.3392 44.3809 20.1113 44.3809C19.8867 44.3809 19.6816 44.4281 19.4961 44.5225C19.3138 44.6169 19.1559 44.7471 19.0225 44.9131C18.8923 45.0791 18.7897 45.2695 18.7148 45.4844C18.6432 45.696 18.6074 45.9206 18.6074 46.1582ZM23.4414 48.5215C23.4414 48.3685 23.4886 48.2399 23.583 48.1357C23.6807 48.0283 23.8206 47.9746 24.0029 47.9746C24.1852 47.9746 24.3236 48.0283 24.418 48.1357C24.5156 48.2399 24.5645 48.3685 24.5645 48.5215C24.5645 48.6712 24.5156 48.7982 24.418 48.9023C24.3236 49.0065 24.1852 49.0586 24.0029 49.0586C23.8206 49.0586 23.6807 49.0065 23.583 48.9023C23.4886 48.7982 23.4414 48.6712 23.4414 48.5215ZM27.0449 43.7168V49H26.1367V43.7168H27.0449ZM26.0684 42.3154C26.0684 42.1689 26.1123 42.0452 26.2002 41.9443C26.2913 41.8434 26.4248 41.793 26.6006 41.793C26.7731 41.793 26.9049 41.8434 26.9961 41.9443C27.0905 42.0452 27.1377 42.1689 27.1377 42.3154C27.1377 42.4554 27.0905 42.5758 26.9961 42.6768C26.9049 42.7744 26.7731 42.8232 26.6006 42.8232C26.4248 42.8232 26.2913 42.7744 26.2002 42.6768C26.1123 42.5758 26.0684 42.4554 26.0684 42.3154ZM28.2559 46.417V46.3047C28.2559 45.9238 28.3112 45.5706 28.4219 45.2451C28.5326 44.9163 28.6921 44.6315 28.9004 44.3906C29.1087 44.1465 29.361 43.9577 29.6572 43.8242C29.9535 43.6875 30.2855 43.6191 30.6533 43.6191C31.0244 43.6191 31.3581 43.6875 31.6543 43.8242C31.9538 43.9577 32.2077 44.1465 32.416 44.3906C32.6276 44.6315 32.7887 44.9163 32.8994 45.2451C33.0101 45.5706 33.0654 45.9238 33.0654 46.3047V46.417C33.0654 46.7979 33.0101 47.151 32.8994 47.4766C32.7887 47.8021 32.6276 48.0869 32.416 48.3311C32.2077 48.5719 31.9554 48.7607 31.6592 48.8975C31.3662 49.0309 31.0342 49.0977 30.6631 49.0977C30.292 49.0977 29.9583 49.0309 29.6621 48.8975C29.3659 48.7607 29.112 48.5719 28.9004 48.3311C28.6921 48.0869 28.5326 47.8021 28.4219 47.4766C28.3112 47.151 28.2559 46.7979 28.2559 46.417ZM29.1592 46.3047V46.417C29.1592 46.6807 29.1901 46.9297 29.252 47.1641C29.3138 47.3952 29.4066 47.6003 29.5303 47.7793C29.6572 47.9583 29.8151 48.0999 30.0039 48.2041C30.1927 48.305 30.4124 48.3555 30.6631 48.3555C30.9105 48.3555 31.127 48.305 31.3125 48.2041C31.5013 48.0999 31.6576 47.9583 31.7812 47.7793C31.9049 47.6003 31.9977 47.3952 32.0596 47.1641C32.1247 46.9297 32.1572 46.6807 32.1572 46.417V46.3047C32.1572 46.0443 32.1247 45.7985 32.0596 45.5674C31.9977 45.333 31.9033 45.1263 31.7764 44.9473C31.6527 44.765 31.4964 44.6217 31.3076 44.5176C31.1221 44.4134 30.904 44.3613 30.6533 44.3613C30.4059 44.3613 30.1878 44.4134 29.999 44.5176C29.8135 44.6217 29.6572 44.765 29.5303 44.9473C29.4066 45.1263 29.3138 45.333 29.252 45.5674C29.1901 45.7985 29.1592 46.0443 29.1592 46.3047Z" fill="#FFD700"/>
</svg>
