<svg width="40" height="52" viewBox="0 0 40 52" fill="none" xmlns="http://www.w3.org/2000/svg">
<path d="M34.0783 34.0867H28.155V24.805C28.155 22.5917 28.11 19.7433 25.0683 19.7433C21.98 19.7433 21.5083 22.1517 21.5083 24.6417V34.0867H15.585V15H21.275V17.6017H21.3517C22.1467 16.1017 24.08 14.5183 26.9683 14.5183C32.97 14.5183 34.08 18.4683 34.08 23.61V34.0867H34.0783ZM8.895 12.3883C6.98833 12.3883 5.45667 10.845 5.45667 8.94667C5.45667 7.05 6.99 5.50833 8.895 5.50833C10.795 5.50833 12.335 7.05 12.335 8.94667C12.335 10.845 10.7933 12.3883 8.895 12.3883ZM11.865 34.0867H5.925V15H11.865V34.0867ZM37.0417 0H2.95167C1.32 0 0 1.29 0 2.88167V37.1183C0 38.7117 1.32 40 2.95167 40H37.0367C38.6667 40 40 38.7117 40 37.1183V2.88167C40 1.29 38.6667 0 37.0367 0H37.0417Z" fill="#FFD700"/>
<path d="M6.13672 48.2334V49H2.58203V48.2334H6.13672ZM2.76758 41.8906V49H1.8252V41.8906H2.76758ZM8.06055 43.7168V49H7.15234V43.7168H8.06055ZM7.08398 42.3154C7.08398 42.1689 7.12793 42.0452 7.21582 41.9443C7.30697 41.8434 7.44043 41.793 7.61621 41.793C7.78874 41.793 7.92057 41.8434 8.01172 41.9443C8.10612 42.0452 8.15332 42.1689 8.15332 42.3154C8.15332 42.4554 8.10612 42.5758 8.01172 42.6768C7.92057 42.7744 7.78874 42.8232 7.61621 42.8232C7.44043 42.8232 7.30697 42.7744 7.21582 42.6768C7.12793 42.5758 7.08398 42.4554 7.08398 42.3154ZM10.4141 44.8447V49H9.51074V43.7168H10.3652L10.4141 44.8447ZM10.1992 46.1582L9.82324 46.1436C9.8265 45.7822 9.88021 45.4486 9.98438 45.1426C10.0885 44.8333 10.235 44.5648 10.4238 44.3369C10.6126 44.109 10.8372 43.9333 11.0977 43.8096C11.3613 43.6826 11.6527 43.6191 11.9717 43.6191C12.2321 43.6191 12.4665 43.6549 12.6748 43.7266C12.8831 43.7949 13.0605 43.9056 13.207 44.0586C13.3568 44.2116 13.4707 44.4102 13.5488 44.6543C13.627 44.8952 13.666 45.1898 13.666 45.5381V49H12.7578V45.5283C12.7578 45.2516 12.7171 45.0303 12.6357 44.8643C12.5544 44.695 12.4355 44.5729 12.2793 44.498C12.123 44.4199 11.931 44.3809 11.7031 44.3809C11.4785 44.3809 11.2734 44.4281 11.0879 44.5225C10.9056 44.6169 10.7477 44.7471 10.6143 44.9131C10.484 45.0791 10.3815 45.2695 10.3066 45.4844C10.235 45.696 10.1992 45.9206 10.1992 46.1582ZM15.9463 41.5V49H15.0381V41.5H15.9463ZM19.1738 43.7168L16.8691 46.1826L15.5801 47.5205L15.5068 46.5586L16.4297 45.4551L18.0703 43.7168H19.1738ZM18.3486 49L16.4639 46.4805L16.9326 45.6748L19.4131 49H18.3486ZM22.2012 49.0977C21.8333 49.0977 21.4997 49.0358 21.2002 48.9121C20.904 48.7852 20.6484 48.6077 20.4336 48.3799C20.222 48.152 20.0592 47.8818 19.9453 47.5693C19.8314 47.2568 19.7744 46.915 19.7744 46.5439V46.3389C19.7744 45.9092 19.8379 45.5267 19.9648 45.1914C20.0918 44.8529 20.2643 44.5664 20.4824 44.332C20.7005 44.0977 20.9479 43.9202 21.2246 43.7998C21.5013 43.6794 21.7878 43.6191 22.084 43.6191C22.4616 43.6191 22.7871 43.6842 23.0605 43.8145C23.3372 43.9447 23.5635 44.127 23.7393 44.3613C23.915 44.5924 24.0452 44.8659 24.1299 45.1816C24.2145 45.4941 24.2568 45.8359 24.2568 46.207V46.6123H20.3115V45.875H23.3535V45.8066C23.3405 45.5723 23.2917 45.3444 23.207 45.123C23.1257 44.9017 22.9954 44.7194 22.8164 44.5762C22.6374 44.4329 22.3932 44.3613 22.084 44.3613C21.8789 44.3613 21.6901 44.4053 21.5176 44.4932C21.3451 44.5778 21.1969 44.7048 21.0732 44.874C20.9495 45.0433 20.8535 45.25 20.7852 45.4941C20.7168 45.7383 20.6826 46.0199 20.6826 46.3389V46.5439C20.6826 46.7946 20.7168 47.0306 20.7852 47.252C20.8568 47.4701 20.9593 47.6621 21.0928 47.8281C21.2295 47.9941 21.3939 48.1243 21.5859 48.2188C21.7812 48.3132 22.0026 48.3604 22.25 48.3604C22.569 48.3604 22.8392 48.2952 23.0605 48.165C23.2819 48.0348 23.4756 47.8607 23.6416 47.6426L24.1885 48.0771C24.0745 48.2497 23.9297 48.4141 23.7539 48.5703C23.5781 48.7266 23.3617 48.8535 23.1045 48.9512C22.8506 49.0488 22.5495 49.0977 22.2012 49.0977ZM28.6416 47.9746V41.5H29.5498V49H28.7197L28.6416 47.9746ZM25.0869 46.417V46.3145C25.0869 45.9108 25.1357 45.5446 25.2334 45.2158C25.3343 44.8838 25.4759 44.599 25.6582 44.3613C25.8438 44.1237 26.0635 43.9414 26.3174 43.8145C26.5745 43.6842 26.861 43.6191 27.1768 43.6191C27.5088 43.6191 27.7985 43.6777 28.0459 43.7949C28.2965 43.9089 28.5081 44.0765 28.6807 44.2979C28.8564 44.516 28.9948 44.7796 29.0957 45.0889C29.1966 45.3981 29.2666 45.748 29.3057 46.1387V46.5879C29.2699 46.9753 29.1999 47.3236 29.0957 47.6328C28.9948 47.9421 28.8564 48.2057 28.6807 48.4238C28.5081 48.6419 28.2965 48.8096 28.0459 48.9268C27.7952 49.0407 27.5023 49.0977 27.167 49.0977C26.8577 49.0977 26.5745 49.0309 26.3174 48.8975C26.0635 48.764 25.8438 48.5768 25.6582 48.3359C25.4759 48.0951 25.3343 47.8118 25.2334 47.4863C25.1357 47.1576 25.0869 46.8011 25.0869 46.417ZM25.9951 46.3145V46.417C25.9951 46.6807 26.0212 46.9281 26.0732 47.1592C26.1286 47.3903 26.2132 47.5938 26.3271 47.7695C26.4411 47.9453 26.5859 48.0837 26.7617 48.1846C26.9375 48.2822 27.1475 48.3311 27.3916 48.3311C27.6911 48.3311 27.9368 48.2676 28.1289 48.1406C28.3242 48.0137 28.4805 47.846 28.5977 47.6377C28.7148 47.4294 28.806 47.2031 28.8711 46.959V45.7822C28.832 45.6032 28.7751 45.4307 28.7002 45.2646C28.6286 45.0954 28.5342 44.9456 28.417 44.8154C28.3031 44.682 28.1615 44.5762 27.9922 44.498C27.8262 44.4199 27.6292 44.3809 27.4014 44.3809C27.154 44.3809 26.9408 44.4329 26.7617 44.5371C26.5859 44.638 26.4411 44.778 26.3271 44.957C26.2132 45.1328 26.1286 45.3379 26.0732 45.5723C26.0212 45.8034 25.9951 46.0508 25.9951 46.3145ZM31.9375 43.7168V49H31.0293V43.7168H31.9375ZM30.9609 42.3154C30.9609 42.1689 31.0049 42.0452 31.0928 41.9443C31.1839 41.8434 31.3174 41.793 31.4932 41.793C31.6657 41.793 31.7975 41.8434 31.8887 41.9443C31.9831 42.0452 32.0303 42.1689 32.0303 42.3154C32.0303 42.4554 31.9831 42.5758 31.8887 42.6768C31.7975 42.7744 31.6657 42.8232 31.4932 42.8232C31.3174 42.8232 31.1839 42.7744 31.0928 42.6768C31.0049 42.5758 30.9609 42.4554 30.9609 42.3154ZM34.291 44.8447V49H33.3877V43.7168H34.2422L34.291 44.8447ZM34.0762 46.1582L33.7002 46.1436C33.7035 45.7822 33.7572 45.4486 33.8613 45.1426C33.9655 44.8333 34.112 44.5648 34.3008 44.3369C34.4896 44.109 34.7142 43.9333 34.9746 43.8096C35.2383 43.6826 35.5296 43.6191 35.8486 43.6191C36.109 43.6191 36.3434 43.6549 36.5518 43.7266C36.7601 43.7949 36.9375 43.9056 37.084 44.0586C37.2337 44.2116 37.3477 44.4102 37.4258 44.6543C37.5039 44.8952 37.543 45.1898 37.543 45.5381V49H36.6348V45.5283C36.6348 45.2516 36.5941 45.0303 36.5127 44.8643C36.4313 44.695 36.3125 44.5729 36.1562 44.498C36 44.4199 35.8079 44.3809 35.5801 44.3809C35.3555 44.3809 35.1504 44.4281 34.9648 44.5225C34.7826 44.6169 34.6247 44.7471 34.4912 44.9131C34.361 45.0791 34.2585 45.2695 34.1836 45.4844C34.112 45.696 34.0762 45.9206 34.0762 46.1582Z" fill="#FFD700"/>
</svg>
